<mxfile host="app.diagrams.net" type="device">
  <diagram name="SC2" id="sc2-diagram">
    <mxGraphModel dx="1280" dy="720" grid="1" gridSize="10" guides="1" tooltips="1" connect="1" arrows="1" fold="1" page="1" pageScale="1" pageWidth="1240" pageHeight="1754" background="#ffffff">
      <root>
        <mxCell id="0"/>
        <mxCell id="1" parent="0"/>
        <!-- Screen canvas -->
        <mxCell id="c2" value="SC2 詳細/完了" style="rounded=1;whiteSpace=wrap;html=1;fillColor=#FFFFFF;strokeColor=#000000;" vertex="1" parent="1">
          <mxGeometry x="40" y="40" width="600" height="400" as="geometry"/>
        </mxCell>
        <!-- Title -->
        <mxCell id="t2" value="タスク詳細" style="text;whiteSpace=wrap;html=1;align=left;verticalAlign=middle;fontSize=18;" vertex="1" parent="c2">
          <mxGeometry x="20" y="16" width="560" height="28" as="geometry"/>
        </mxCell>
        <!-- Detail Area -->
        <mxCell id="d2" value="内容" style="rounded=1;whiteSpace=wrap;html=1;fillColor=#FFFFFF;strokeColor=#CBD5E1;" vertex="1" parent="c2">
          <mxGeometry x="20" y="56" width="560" height="200" as="geometry"/>
        </mxCell>
        <!-- Done Button -->
        <mxCell id="done" value="完了" style="rounded=1;whiteSpace=wrap;html=1;fillColor=#3B82F6;fontColor=#FFFFFF;strokeColor=#3B82F6;" vertex="1" parent="c2">
          <mxGeometry x="20" y="266" width="120" height="36" as="geometry"/>
        </mxCell>
        <!-- Back Button -->
        <mxCell id="back" value="戻る" style="rounded=1;whiteSpace=wrap;html=1;fillColor=#E2E8F0;strokeColor=#94A3B8;" vertex="1" parent="c2">
          <mxGeometry x="160" y="266" width="120" height="36" as="geometry"/>
        </mxCell>
      </root>
    </mxGraphModel>
  </diagram>
</mxfile>
